<!DOCTYPE svg PUBLIC "-//W3C//DTD SVG 1.1//EN" "http://www.w3.org/Graphics/SVG/1.1/DTD/svg11.dtd">
<!-- Uploaded to: SVG Repo, www.svgrepo.com, Transformed by: SVG Repo Mixer Tools -->
<svg fill="#ffffff" height="800px" width="800px" version="1.1" id="Layer_1" xmlns="http://www.w3.org/2000/svg" xmlns:xlink="http://www.w3.org/1999/xlink" viewBox="0 0 511.999 511.999" xml:space="preserve" stroke="#ffffff">
<g id="SVGRepo_bgCarrier" stroke-width="0"/>
<g id="SVGRepo_tracerCarrier" stroke-linecap="round" stroke-linejoin="round"/>
<g id="SVGRepo_iconCarrier"> <g> <g> <path d="M237.432,88.191c-2.899-5.451-8.57-8.858-14.744-8.858c-0.001,0-0.001,0-0.001,0c-6.173,0-11.843,3.406-14.744,8.856 l-90.021,169.17l32.67,65.34c1.046,2.092,1.925,4.232,2.662,6.402l65.266-122.624c-2.866,0.739-5.516,2.215-7.644,4.343 l-21.594,21.594l-13.216-13.216l46.616-87.603l17.839,33.538l18.917-35.564L237.432,88.191z"/> </g> </g> <g> <g> <path d="M273.2,407.134c-2.478-8.883-11.69-14.075-20.576-11.597L12.217,462.628C3.333,465.108-1.86,474.32,0.62,483.204 c2.06,7.383,8.769,12.216,16.077,12.216c3.391,0-12.161,4.031,244.906-67.71C270.487,425.231,275.68,416.018,273.2,407.134z"/> </g> </g> <g> <g> <path d="M509.865,269.56C485.531,223.814,404.897,69.013,382.242,25.526c-2.863-5.499-8.539-8.962-14.739-8.989 c-0.025,0-0.049,0-0.073,0c-6.173,0-11.845,3.406-14.745,8.858c-116.319,218.679-68.75,129.274-171.926,323.123 c-38.705,10.86-74.359,20.866-102.816,28.854v-15.566h27.445c4.449,0,8.822-1.584,12.006-4.692 c5.348-5.22,6.518-13.089,3.323-19.478l-44.361-88.72c-2.364-4.728-6.706-8.276-11.897-9.277 c-7.521-1.45-14.852,2.316-18.156,8.924L1.91,337.351c-1.97,3.94-2.486,8.51-1.16,12.711c2.259,7.155,8.792,11.745,15.955,11.745 H44.54v24.942c-19.795,5.557-31.707,8.902-32.35,9.082c-8.881,2.493-14.058,11.714-11.564,20.594 c0.104,0.369,0.218,0.73,0.345,1.087c2.85,8.031,11.728,12.221,19.937,9.929l478.875-133.625 c6.122-1.708,10.855-6.786,11.981-13.29C512.415,276.776,511.653,272.92,509.865,269.56z M400.832,165.608l-21.594-21.594 c-6.521-6.521-17.096-6.521-23.619,0l-21.594,21.594l-11.809-11.809l45.057-84.706c11.191,21.478,27.541,52.843,44.586,85.487 L400.832,165.608z"/> </g> </g> <g> <g> <path d="M66.809,16.648c-36.836,0-66.805,29.969-66.805,66.805s29.969,66.805,66.805,66.805c36.836,0,66.805-29.969,66.805-66.805 S103.645,16.648,66.809,16.648z M66.809,116.855c-18.418,0-33.402-14.984-33.402-33.402S48.391,50.05,66.809,50.05 c18.418,0,33.402,14.984,33.402,33.402S85.227,116.855,66.809,116.855z"/> </g> </g> <g> <g> <path d="M511.369,406.809c-2.501-8.877-11.725-14.049-20.605-11.547l-238.18,67.091c-8.878,2.501-14.048,11.725-11.547,20.605 c2.502,8.879,11.726,14.047,20.604,11.547l238.181-67.091C508.7,424.913,513.87,415.689,511.369,406.809z"/> </g> </g> </g>
</svg>